<svg xmlns="http://www.w3.org/2000/svg" viewBox="0 0 240 240" role="img" aria-label="Manuale Ca.R.Pe.">
  <defs>
    <linearGradient id="cp" x1="0" y1="0" x2="0" y2="1">
      <stop offset="0" stop-color="#327fac"/>
      <stop offset="1" stop-color="#1e5476"/>
    </linearGradient>
  </defs>
  <rect x="8" y="8" width="224" height="224" rx="56" fill="url(#cp)"/>
  <path d="M120 80C104 68 78 66 56 72v92c22-6 48-4 64 8 16-12 42-14 64-8V72c-22-6-48-4-64 8z" fill="#fff"/>
  <path d="M120 80v92" fill="none" stroke="#1e5476" stroke-width="7" stroke-linecap="round"/>
  <path d="M72 98q20-5 38 3M72 120q20-5 38 3M130 101q20-8 38-3M130 123q20-8 38-3" fill="none" stroke="#327fac" stroke-width="5" stroke-linecap="round" opacity=".55"/>
</svg>
